# xmcd
#
# Track frame offsets: 
#        150
#        18318
#        42616
#        63782
#        83490
#        99985
#        114481
#        131812
#        149980
#
# Disc length: 2260 seconds
#
# Revision: 0
# Processed by: cddbd v1.5.2PL0 Copyright (c) Steve Scherf et al.
# Submitted via: ExactAudioCopy v1.0b3
#
DISCID=7a08d209
DTITLE=Sabri Fejzullahu - Çika e Ulpianës
DYEAR=2008
DGENRE=Pop - Shqip
TTITLE0=Çika e Ulpianës
TTITLE1=Shpirt Magjie
TTITLE2=Kujtimet
TTITLE3=Gurgullima e Dashurisë
TTITLE4=Letrat e Mia
TTITLE5=Nuk i dua Mardhësitë
TTITLE6=Lot tu Bëfsha
TTITLE7=Po të pres që Njëmijë Vjet
TTITLE8=Ti më the Njëherë
EXTD=
EXTT0=
EXTT1=
EXTT2=
EXTT3=
EXTT4=
EXTT5=
EXTT6=
EXTT7=
EXTT8=
PLAYORDER=
